# xmcd
#
# Track frame offsets: 
#        183
#        10295
#        22155
#        34170
#        43640
#        54940
#        66833
#        78928
#        91665
#        103908
#        112150
#        124845
#        137345
#        149720
#        158450
#        166818
#        179668
#        192390
#        202228
#        211900
#        222618
#        232805
#        246540
#        256215
#        267113
#        276265
#        287588
#
# Disc length: 3995 seconds
#
# Revision: 0
# Processed by: cddbd v1.5.1PL0 Copyright (c) Steve Scherf et al.
# Submitted via: ExactAudioCopy v0.95a4
#
DISCID=970f991b
DTITLE=Jerry Lee Lewis - The Locust Years - Disc 3
DYEAR=1900
DGENRE=Country
TTITLE0=Ring Of Fire
TTITLE1=Baby (You've Got What It Takes) (& Linda Gail Lewis)
TTITLE2=Green, Green Grass Of Home
TTITLE3=Sticks And Stones
TTITLE4=What A Heck Of A Mess
TTITLE5=Lincoln Limousine
TTITLE6=Rockin' Jerry Lee (mono)
TTITLE7=Memphis Beat
TTITLE8=The Urge
TTITLE9=Whenever You're Ready
TTITLE10=She Thinks I Still Care
TTITLE11=Memphis Beat (version 1)
TTITLE12=Memphis Beat (version 2)
TTITLE13=Twenty Four Hours A Day
TTITLE14=Twenty Four Hours A Day (with strings) (mono)
TTITLE15=Swinging Doors (mono)
TTITLE16=Swinging Doors (with strings)
TTITLE17=If I Had It All To Do Over
TTITLE18=If I Had It All To Do Over (with strings) (mono)
TTITLE19=Just Dropped In
TTITLE20=It's A Hang Up Baby
TTITLE21=Holdin' On
TTITLE22=Hey Baby
TTITLE23=Dream Baby (How Long Must I Dream)
TTITLE24=Treat Her Right
TTITLE25=Turn On Your Love Light
TTITLE26=Shotgun Man
EXTD=
EXTT0=
EXTT1=
EXTT2=
EXTT3=
EXTT4=
EXTT5=
EXTT6=
EXTT7=
EXTT8=
EXTT9=
EXTT10=
EXTT11=
EXTT12=
EXTT13=
EXTT14=
EXTT15=
EXTT16=
EXTT17=
EXTT18=
EXTT19=
EXTT20=
EXTT21=
EXTT22=
EXTT23=
EXTT24=
EXTT25=
EXTT26=
PLAYORDER=
